<svg width="500" height="883" viewBox="0 0 500 883" fill="none" xmlns="http://www.w3.org/2000/svg">
<path d="M248.675 58.8767C241.355 95.7373 212.527 121.765 180.691 136.56C147.2 149.699 120.428 179.388 160.035 205.517C178.686 216.249 199.191 218.556 216.037 233.15C247.572 259.78 209.018 286.159 180.089 297.994C129.703 317.352 79.1161 319.308 30.5848 355.266C11.3327 368.907 -10.7771 396.289 5.86791 418.957C20.0062 441.776 88.1906 465.296 134.115 472.719C174.524 479.79 262.613 497.644 269.682 547.242C270.484 593.531 209.319 595.036 191.42 628.988C177.482 662.388 245.115 671.967 251.382 701.255C255.694 717.403 240.353 730.141 231.128 742.027C208.566 768.356 225.312 784.805 240.252 811.335C247.973 825.076 253.137 837.313 256.496 853.361C259.053 865.548 259.254 875.979 259.053 883C258.702 874.976 258.802 863.14 261.209 849.148C262.763 840.121 264.869 833.351 266.122 828.687C272.79 804.565 273.191 775.277 293.296 758.777C314.052 739.168 363.837 740.573 360.929 703.461C354.01 676.681 312.147 671.766 290.037 659.88C277.653 652.609 264.518 638.667 267.927 624.474C279.208 591.024 341.376 580.041 368.9 571.515C392.414 565.246 417.632 562.137 440.494 554.213C461.551 545.688 489.828 531.696 498.1 509.629C503.164 492.127 497.9 471.866 484.764 458.877C419.638 405.517 353.759 422.017 288.132 395.186C255.393 384.103 205.709 354.313 231.98 315.045C248.023 293.531 271.788 284.454 290.739 266.75C316.208 244.634 293.998 225.326 270.685 214.644C249.026 204.464 237.996 189.418 260.106 176.028C282.868 163.19 317.461 155.667 342.579 145.386C397.528 120.813 362.032 90.0702 321.973 76.1785C298.811 68.1544 290.087 64.7943 284.071 59.8796C283.219 59.1775 280.06 56.2187 276.35 51.3541C270.985 44.3832 260.507 28.2849 257.348 0C256.847 9.97995 255.594 25.025 252.134 43.1795C250.881 49.6991 249.327 55.9679 248.725 58.9769L248.675 58.8767Z" fill="#EFB25E"/>
</svg>
